<?xml version="1.0" encoding="UTF-8" standalone="no"?>
<!-- Created with Inkscape (http://www.inkscape.org/) -->

<svg
   xmlns:dc="http://purl.org/dc/elements/1.1/"
   xmlns:cc="http://creativecommons.org/ns#"
   xmlns:rdf="http://www.w3.org/1999/02/22-rdf-syntax-ns#"
   xmlns:svg="http://www.w3.org/2000/svg"
   xmlns="http://www.w3.org/2000/svg"
   xmlns:sodipodi="http://sodipodi.sourceforge.net/DTD/sodipodi-0.dtd"
   xmlns:inkscape="http://www.inkscape.org/namespaces/inkscape"
   width="210mm"
   height="297mm"
   viewBox="0 0 210 297"
   version="1.1"
   id="svg8"
   inkscape:version="0.92.4 (5da689c313, 2019-01-14)"
   sodipodi:docname="PEKIN2.svg">
  <defs
     id="defs2" />
  <sodipodi:namedview
     id="base"
     pagecolor="#ffffff"
     bordercolor="#666666"
     borderopacity="1.0"
     inkscape:pageopacity="0.0"
     inkscape:pageshadow="2"
     inkscape:zoom="0.35"
     inkscape:cx="-28.571429"
     inkscape:cy="1245.7143"
     inkscape:document-units="mm"
     inkscape:current-layer="layer1"
     showgrid="false"
     inkscape:window-width="1440"
     inkscape:window-height="837"
     inkscape:window-x="-8"
     inkscape:window-y="-8"
     inkscape:window-maximized="1" />
  <metadata
     id="metadata5">
    <rdf:RDF>
      <cc:Work
         rdf:about="">
        <dc:format>image/svg+xml</dc:format>
        <dc:type
           rdf:resource="http://purl.org/dc/dcmitype/StillImage" />
        <dc:title></dc:title>
      </cc:Work>
    </rdf:RDF>
  </metadata>
  <g
     inkscape:label="Layer 1"
     inkscape:groupmode="layer"
     id="layer1">
    <path
       inkscape:connector-curvature="0"
       id="path14"
       style="font-style:normal;font-variant:normal;font-weight:bold;font-stretch:normal;font-size:14.11111069px;line-height:1.25;font-family:sans-serif;-inkscape-font-specification:'sans-serif Bold';letter-spacing:0px;word-spacing:0px;fill:#000000;fill-opacity:1;stroke:none;stroke-width:0.26458332"
       d="m -156.70951,-23.95789 q 0.83371,0 1.192,-0.31006 0.36518,-0.31006 0.36518,-1.01975 0,-0.7028 -0.36518,-1.00597 -0.35829,-0.30316 -1.192,-0.30316 h -1.11621 v 2.63894 z m -1.11621,1.83279 v 3.89296 h -2.65272 V -28.5192 h 4.05143 q 2.03261,0 2.97656,0.68213 0.95085,0.68213 0.95085,2.15663 0,1.01975 -0.4961,1.67432 -0.4892,0.65457 -1.48139,0.96462 0.54433,0.12403 0.97152,0.565 0.43408,0.43408 0.87505,1.32292 l 1.44005,2.92144 h -2.82497 l -1.25402,-2.55626 q -0.37896,-0.7717 -0.7717,-1.0542 -0.38585,-0.2825 -1.03353,-0.2825 z" />
    <path
       inkscape:connector-curvature="0"
       id="path16"
       style="font-style:normal;font-variant:normal;font-weight:bold;font-stretch:normal;font-size:14.11111069px;line-height:1.25;font-family:sans-serif;-inkscape-font-specification:'sans-serif Bold';letter-spacing:0px;word-spacing:0px;fill:#000000;fill-opacity:1;stroke:none;stroke-width:0.26458332"
       d="m -144.92039,-26.78287 q -1.21268,0 -1.88102,0.89573 -0.66835,0.89572 -0.66835,2.52181 0,1.61919 0.66835,2.51492 0.66834,0.89572 1.88102,0.89572 1.21956,0 1.88791,-0.89572 0.66835,-0.89573 0.66835,-2.51492 0,-1.62609 -0.66835,-2.52181 -0.66835,-0.89573 -1.88791,-0.89573 z m 0,-1.92236 q 2.48047,0 3.88607,1.41938 1.40559,1.41938 1.40559,3.92052 0,2.49425 -1.40559,3.91362 -1.4056,1.41938 -3.88607,1.41938 -2.47358,0 -3.88607,-1.41938 -1.4056,-1.41937 -1.4056,-3.91362 0,-2.50114 1.4056,-3.92052 1.41249,-1.41938 3.88607,-1.41938 z" />
    <path
       inkscape:connector-curvature="0"
       id="path18"
       style="font-style:normal;font-variant:normal;font-weight:bold;font-stretch:normal;font-size:14.11111069px;line-height:1.25;font-family:sans-serif;-inkscape-font-specification:'sans-serif Bold';letter-spacing:0px;word-spacing:0px;fill:#000000;fill-opacity:1;stroke:none;stroke-width:0.26458332"
       d="m -137.63057,-28.5192 h 2.96278 l 3.74138,7.05556 v -7.05556 h 2.51492 v 10.28706 h -2.96279 l -3.74137,-7.05556 v 7.05556 h -2.51492 z" />
    <path
       inkscape:connector-curvature="0"
       id="path20"
       style="font-style:normal;font-variant:normal;font-weight:bold;font-stretch:normal;font-size:14.11111069px;line-height:1.25;font-family:sans-serif;-inkscape-font-specification:'sans-serif Bold';letter-spacing:0px;word-spacing:0px;fill:#000000;fill-opacity:1;stroke:none;stroke-width:0.26458332"
       d="m -125.807,-28.5192 h 4.40283 q 1.9637,0 3.01101,0.87506 1.0542,0.86816 1.0542,2.48047 0,1.61919 -1.0542,2.49425 -1.04731,0.86816 -3.01101,0.86816 h -1.75011 v 3.56912 h -2.65272 z m 2.65272,1.92237 v 2.87321 h 1.46761 q 0.7717,0 1.192,-0.37207 0.42031,-0.37896 0.42031,-1.06798 0,-0.68902 -0.42031,-1.06109 -0.4203,-0.37207 -1.192,-0.37207 z" />
    <path
       inkscape:connector-curvature="0"
       id="path22"
       style="font-style:normal;font-variant:normal;font-weight:bold;font-stretch:normal;font-size:14.11111069px;line-height:1.25;font-family:sans-serif;-inkscape-font-specification:'sans-serif Bold';letter-spacing:0px;word-spacing:0px;fill:#000000;fill-opacity:1;stroke:none;stroke-width:0.26458332"
       d="m -115.47172,-28.5192 h 2.65273 v 6.16672 q 0,1.27469 0.41341,1.8259 0.4203,0.54433 1.36425,0.54433 0.95085,0 1.36426,-0.54433 0.4203,-0.55121 0.4203,-1.8259 v -6.16672 h 2.65273 v 6.16672 q 0,2.18419 -1.09554,3.25217 -1.09554,1.06798 -3.34175,1.06798 -2.23931,0 -3.33485,-1.06798 -1.09554,-1.06798 -1.09554,-3.25217 z" />
    <path
       inkscape:connector-curvature="0"
       id="path24"
       style="font-style:normal;font-variant:normal;font-weight:bold;font-stretch:normal;font-size:14.11111069px;line-height:1.25;font-family:sans-serif;-inkscape-font-specification:'sans-serif Bold';letter-spacing:0px;word-spacing:0px;fill:#000000;fill-opacity:1;stroke:none;stroke-width:0.26458332"
       d="m -104.00644,-28.5192 h 2.65272 v 3.75516 l 3.824064,-3.75516 h 3.07992 l -4.95405,4.87137 5.46392,5.41569 h -3.32107 l -4.092784,-4.05143 v 4.05143 h -2.65272 z" />
    <path
       inkscape:connector-curvature="0"
       id="path26"
       style="font-style:normal;font-variant:normal;font-weight:bold;font-stretch:normal;font-size:14.11111069px;line-height:1.25;font-family:sans-serif;-inkscape-font-specification:'sans-serif Bold';letter-spacing:0px;word-spacing:0px;fill:#000000;fill-opacity:1;stroke:none;stroke-width:0.26458332"
       d="m -86.822296,-20.10627 h -4.1479 l -0.65457,1.87413 h -2.6665 l 3.81028,-10.28706 h 3.16259 l 3.81028,10.28706 h -2.66651 z m -3.48644,-1.90859 h 2.81809 l -1.4056,-4.09277 z" />
    <path
       inkscape:connector-curvature="0"
       id="path28"
       style="font-style:normal;font-variant:normal;font-weight:bold;font-stretch:normal;font-size:14.11111069px;line-height:1.25;font-family:sans-serif;-inkscape-font-specification:'sans-serif Bold';letter-spacing:0px;word-spacing:0px;fill:#000000;fill-opacity:1;stroke:none;stroke-width:0.26458332"
       d="m -82.150746,-28.5192 h 3.37619 l 2.34267,5.50527 2.35644,-5.50527 h 3.3693 v 10.28706 h -2.50803 v -7.52409 l -2.37022,5.5466 h -1.68121 l -2.37022,-5.5466 v 7.52409 h -2.51492 z" />
    <path
       inkscape:connector-curvature="0"
       id="path30"
       style="font-style:normal;font-variant:normal;font-weight:bold;font-stretch:normal;font-size:14.11111069px;line-height:1.25;font-family:sans-serif;-inkscape-font-specification:'sans-serif Bold';letter-spacing:0px;word-spacing:0px;fill:#000000;fill-opacity:1;stroke:none;stroke-width:0.26458332"
       d="m -68.094756,-28.5192 h 7.15891 v 2.00505 h -4.50619 v 1.91547 h 4.23747 v 2.00505 h -4.23747 v 2.35644 h 4.65777 v 2.00505 h -7.31049 z" />
    <path
       inkscape:connector-curvature="0"
       id="path32"
       style="font-style:normal;font-variant:normal;font-weight:bold;font-stretch:normal;font-size:14.11111069px;line-height:1.25;font-family:sans-serif;-inkscape-font-specification:'sans-serif Bold';letter-spacing:0px;word-spacing:0px;fill:#000000;fill-opacity:1;stroke:none;stroke-width:0.26458332"
       d="m -58.448496,-28.5192 h 2.65273 v 10.28706 h -2.65273 z" />
  </g>
</svg>
