<?xml version="1.0" encoding="UTF-8" standalone="no"?>
<!-- Created with Inkscape (http://www.inkscape.org/) -->

<svg
   xmlns:dc="http://purl.org/dc/elements/1.1/"
   xmlns:cc="http://creativecommons.org/ns#"
   xmlns:rdf="http://www.w3.org/1999/02/22-rdf-syntax-ns#"
   xmlns:svg="http://www.w3.org/2000/svg"
   xmlns="http://www.w3.org/2000/svg"
   xmlns:sodipodi="http://sodipodi.sourceforge.net/DTD/sodipodi-0.dtd"
   xmlns:inkscape="http://www.inkscape.org/namespaces/inkscape"
   width="210mm"
   height="297mm"
   viewBox="0 0 210 297"
   version="1.1"
   id="svg8"
   inkscape:version="0.92.4 (5da689c313, 2019-01-14)"
   sodipodi:docname="cajaFuerte.svg">
  <defs
     id="defs2" />
  <sodipodi:namedview
     id="base"
     pagecolor="#ffffff"
     bordercolor="#666666"
     borderopacity="1.0"
     inkscape:pageopacity="0.0"
     inkscape:pageshadow="2"
     inkscape:zoom="0.35"
     inkscape:cx="-28.571429"
     inkscape:cy="560"
     inkscape:document-units="mm"
     inkscape:current-layer="layer1"
     showgrid="false"
     inkscape:window-width="1440"
     inkscape:window-height="837"
     inkscape:window-x="-8"
     inkscape:window-y="-8"
     inkscape:window-maximized="1" />
  <metadata
     id="metadata5">
    <rdf:RDF>
      <cc:Work
         rdf:about="">
        <dc:format>image/svg+xml</dc:format>
        <dc:type
           rdf:resource="http://purl.org/dc/dcmitype/StillImage" />
        <dc:title></dc:title>
      </cc:Work>
    </rdf:RDF>
  </metadata>
  <g
     inkscape:label="Layer 1"
     inkscape:groupmode="layer"
     id="layer1">
    <g
       aria-label="A E I O U
Q W T S R
O M L P V
N B H G C"
       style="font-style:normal;font-weight:normal;font-size:14.11111069px;line-height:1.25;font-family:sans-serif;letter-spacing:0px;word-spacing:0px;fill:#000000;fill-opacity:1;stroke:none;stroke-width:0.26458332"
       id="text12">
      <path
         d="m -279.72403,70.608015 h -4.1479 l -0.65457,1.874132 h -2.6665 l 3.81028,-10.287055 h 3.16259 l 3.81028,10.287055 h -2.66651 z m -3.48644,-1.908583 h 2.81809 l -1.4056,-4.092773 z"
         style="font-style:normal;font-variant:normal;font-weight:bold;font-stretch:normal;font-family:sans-serif;-inkscape-font-specification:'sans-serif Bold';stroke-width:0.26458332"
         id="path22" />
      <path
         d="m -270.14667,62.195092 h 7.15891 v 2.005046 h -4.50618 v 1.915473 h 4.23746 v 2.005045 h -4.23746 v 2.356446 h 4.65776 v 2.005045 h -7.31049 z"
         style="font-style:normal;font-variant:normal;font-weight:bold;font-stretch:normal;font-family:sans-serif;-inkscape-font-specification:'sans-serif Bold';stroke-width:0.26458332"
         id="path24" />
      <path
         d="m -255.59459,62.195092 h 2.65273 v 10.287055 h -2.65273 z"
         style="font-style:normal;font-variant:normal;font-weight:bold;font-stretch:normal;font-family:sans-serif;-inkscape-font-specification:'sans-serif Bold';stroke-width:0.26458332"
         id="path26" />
      <path
         d="m -240.72555,63.93142 q -1.21268,0 -1.88103,0.895725 -0.66834,0.895725 -0.66834,2.52181 0,1.619195 0.66834,2.51492 0.66835,0.895725 1.88103,0.895725 1.21956,0 1.88791,-0.895725 0.66835,-0.895725 0.66835,-2.51492 0,-1.626085 -0.66835,-2.52181 -0.66835,-0.895725 -1.88791,-0.895725 z m 0,-1.922363 q 2.48046,0 3.88606,1.41938 1.4056,1.419379 1.4056,3.920518 0,2.494249 -1.4056,3.913628 -1.4056,1.41938 -3.88606,1.41938 -2.47358,0 -3.88607,-1.41938 -1.4056,-1.419379 -1.4056,-3.913628 0,-2.501139 1.4056,-3.920518 1.41249,-1.41938 3.88607,-1.41938 z"
         style="font-style:normal;font-variant:normal;font-weight:bold;font-stretch:normal;font-family:sans-serif;-inkscape-font-specification:'sans-serif Bold';stroke-width:0.26458332"
         id="path28" />
      <path
         d="m -228.52992,62.195092 h 2.65273 v 6.166721 q 0,1.274685 0.41341,1.825901 0.4203,0.544325 1.36426,0.544325 0.95084,0 1.36425,-0.544325 0.42031,-0.551216 0.42031,-1.825901 v -6.166721 h 2.65272 v 6.166721 q 0,2.184191 -1.09554,3.25217 -1.09554,1.06798 -3.34174,1.06798 -2.23932,0 -3.33486,-1.06798 -1.09554,-1.067979 -1.09554,-3.25217 z"
         style="font-style:normal;font-variant:normal;font-weight:bold;font-stretch:normal;font-family:sans-serif;-inkscape-font-specification:'sans-serif Bold';stroke-width:0.26458332"
         id="path30" />
      <path
         d="m -280.98494,90.307071 h -0.2067 q -2.54248,0 -3.95497,-1.405599 -1.41249,-1.405599 -1.41249,-3.913629 0,-2.501139 1.4056,-3.920518 1.41249,-1.419379 3.88606,-1.419379 2.50114,0 3.89296,1.405599 1.39871,1.405598 1.39871,3.934298 0,1.736329 -0.74414,2.990343 -0.73725,1.254015 -2.12907,1.887913 l 2.07395,2.315104 h -2.5287 z m -0.2825,-8.736762 q -1.21267,0 -1.88102,0.895725 -0.66835,0.895724 -0.66835,2.521809 0,1.653646 0.65457,2.535591 0.65457,0.875054 1.8948,0.875054 1.21957,0 1.88792,-0.895725 0.66834,-0.895725 0.66834,-2.51492 0,-1.626085 -0.66834,-2.521809 -0.66835,-0.895725 -1.88792,-0.895725 z"
         style="font-style:normal;font-variant:normal;font-weight:bold;font-stretch:normal;font-family:sans-serif;-inkscape-font-specification:'sans-serif Bold';stroke-width:0.26458332"
         id="path32" />
      <path
         d="m -269.94685,79.833981 h 2.54248 l 1.77767,7.475857 1.76389,-7.475857 h 2.55626 l 1.76388,7.475857 1.77767,-7.475857 h 2.52181 l -2.42534,10.287055 h -3.05925 l -1.86724,-7.820367 -1.84657,7.820367 h -3.05925 z"
         style="font-style:normal;font-variant:normal;font-weight:bold;font-stretch:normal;font-family:sans-serif;-inkscape-font-specification:'sans-serif Bold';stroke-width:0.26458332"
         id="path34" />
      <path
         d="m -249.82061,79.833981 h 9.48091 v 2.005045 h -3.41065 v 8.28201 h -2.65272 v -8.28201 h -3.41754 z"
         style="font-style:normal;font-variant:normal;font-weight:bold;font-stretch:normal;font-family:sans-serif;-inkscape-font-specification:'sans-serif Bold';stroke-width:0.26458332"
         id="path36" />
      <path
         d="m -226.91072,80.15782 v 2.1773 q -0.8475,-0.37896 -1.65365,-0.571886 -0.80615,-0.192925 -1.52273,-0.192925 -0.95085,0 -1.4056,0.261827 -0.45475,0.261827 -0.45475,0.813043 0,0.413411 0.30317,0.647678 0.31006,0.227376 1.11621,0.39274 l 1.12999,0.227377 q 1.71566,0.344509 2.43913,1.047309 0.72347,0.702799 0.72347,1.998155 0,1.701877 -1.01286,2.53559 -1.00597,0.826823 -3.07992,0.826823 -0.9784,0 -1.9637,-0.186035 -0.9853,-0.186035 -1.9706,-0.551215 v -2.239312 q 0.9853,0.523654 1.9017,0.792372 0.92328,0.261827 1.77767,0.261827 0.86816,0 1.3298,-0.289388 0.46165,-0.289388 0.46165,-0.826823 0,-0.482313 -0.31695,-0.744141 -0.31006,-0.261827 -1.24713,-0.468533 l -1.02664,-0.227376 q -1.5434,-0.330729 -2.25998,-1.054199 -0.70969,-0.72347 -0.70969,-1.949924 0,-1.536513 0.99219,-2.363335 0.99219,-0.826823 2.85254,-0.826823 0.84749,0 1.74322,0.130913 0.89572,0.124024 1.85346,0.378961 z"
         style="font-style:normal;font-variant:normal;font-weight:bold;font-stretch:normal;font-family:sans-serif;-inkscape-font-specification:'sans-serif Bold';stroke-width:0.26458332"
         id="path38" />
      <path
         d="m -215.22496,84.395287 q 0.83372,0 1.19201,-0.310059 0.36518,-0.310058 0.36518,-1.019748 0,-0.702799 -0.36518,-1.005968 -0.35829,-0.303168 -1.19201,-0.303168 h -1.11621 v 2.638943 z m -1.11621,1.832791 v 3.892958 h -2.65272 V 79.833981 h 4.05143 q 2.03261,0 2.97656,0.682129 0.95085,0.682129 0.95085,2.156629 0,1.019749 -0.49609,1.674317 -0.48921,0.654568 -1.48139,0.964626 0.54432,0.124024 0.97151,0.564996 0.43409,0.434082 0.87506,1.322917 l 1.44005,2.921441 h -2.82498 l -1.25402,-2.556261 q -0.37896,-0.771702 -0.7717,-1.054199 -0.38585,-0.282498 -1.03353,-0.282498 z"
         style="font-style:normal;font-variant:normal;font-weight:bold;font-stretch:normal;font-family:sans-serif;-inkscape-font-specification:'sans-serif Bold';stroke-width:0.26458332"
         id="path40" />
      <path
         d="m -281.26744,99.209197 q -1.21267,0 -1.88102,0.895723 -0.66835,0.89573 -0.66835,2.52181 0,1.6192 0.66835,2.51492 0.66835,0.89573 1.88102,0.89573 1.21957,0 1.88792,-0.89573 0.66834,-0.89572 0.66834,-2.51492 0,-1.62608 -0.66834,-2.52181 -0.66835,-0.895723 -1.88792,-0.895723 z m 0,-1.922363 q 2.48047,0 3.88607,1.419379 1.4056,1.419377 1.4056,3.920517 0,2.49425 -1.4056,3.91363 -1.4056,1.41938 -3.88607,1.41938 -2.47357,0 -3.88606,-1.41938 -1.4056,-1.41938 -1.4056,-3.91363 0,-2.50114 1.4056,-3.920517 1.41249,-1.419379 3.88606,-1.419379 z"
         style="font-style:normal;font-variant:normal;font-weight:bold;font-stretch:normal;font-family:sans-serif;-inkscape-font-specification:'sans-serif Bold';stroke-width:0.26458332"
         id="path42" />
      <path
         d="m -269.0718,97.472869 h 3.37619 l 2.34267,5.505261 2.35644,-5.505261 h 3.36931 v 10.287051 h -2.50803 v -7.52408 l -2.37023,5.5466 h -1.6812 l -2.37023,-5.5466 v 7.52408 h -2.51492 z"
         style="font-style:normal;font-variant:normal;font-weight:bold;font-stretch:normal;font-family:sans-serif;-inkscape-font-specification:'sans-serif Bold';stroke-width:0.26458332"
         id="path44" />
      <path
         d="m -250.10999,97.472869 h 2.65272 v 8.282011 h 4.65777 v 2.00504 h -7.31049 z"
         style="font-style:normal;font-variant:normal;font-weight:bold;font-stretch:normal;font-family:sans-serif;-inkscape-font-specification:'sans-serif Bold';stroke-width:0.26458332"
         id="path46" />
      <path
         d="m -236.21937,97.472869 h 4.40283 q 1.96371,0 3.01102,0.875054 1.0542,0.868164 1.0542,2.480467 0,1.6192 -1.0542,2.49425 -1.04731,0.86817 -3.01102,0.86817 h -1.75011 v 3.56911 h -2.65272 z m 2.65272,1.922363 v 2.873208 h 1.46762 q 0.7717,0 1.192,-0.37207 0.4203,-0.37896 0.4203,-1.06798 0,-0.68902 -0.4203,-1.061087 -0.4203,-0.372071 -1.192,-0.372071 z"
         style="font-style:normal;font-variant:normal;font-weight:bold;font-stretch:normal;font-family:sans-serif;-inkscape-font-specification:'sans-serif Bold';stroke-width:0.26458332"
         id="path48" />
      <path
         d="m -222.20472,97.472869 h 2.66651 l 2.72851,7.592991 2.72163,-7.592991 h 2.6665 l -3.81028,10.287051 h -3.16259 z"
         style="font-style:normal;font-variant:normal;font-weight:bold;font-stretch:normal;font-family:sans-serif;-inkscape-font-specification:'sans-serif Bold';stroke-width:0.26458332"
         id="path50" />
      <path
         d="m -285.96655,115.11176 h 2.96279 l 3.74137,7.05555 v -7.05555 h 2.51492 v 10.28705 h -2.96278 l -3.74138,-7.05555 v 7.05555 h -2.51492 z"
         style="font-style:normal;font-variant:normal;font-weight:bold;font-stretch:normal;font-family:sans-serif;-inkscape-font-specification:'sans-serif Bold';stroke-width:0.26458332"
         id="path52" />
      <path
         d="m -265.11683,119.09429 q 0.62701,0 0.95085,-0.27561 0.32384,-0.27561 0.32384,-0.81304 0,-0.53055 -0.32384,-0.80615 -0.32384,-0.2825 -0.95085,-0.2825 h -1.46761 v 2.1773 z m 0.0896,4.49929 q 0.79927,0 1.1989,-0.33762 0.40652,-0.33762 0.40652,-1.01975 0,-0.66834 -0.39963,-0.99907 -0.39963,-0.33762 -1.20579,-0.33762 h -1.55718 v 2.69406 z m 2.46669,-3.70003 q 0.85439,0.24805 1.32292,0.9164 0.46853,0.66834 0.46853,1.63986 0,1.48828 -1.00597,2.21864 -1.00596,0.73036 -3.05924,0.73036 h -4.40283 v -10.28705 h 3.98253 q 2.14285,0 3.10058,0.64768 0.96463,0.64767 0.96463,2.07394 0,0.75103 -0.3514,1.28158 -0.3514,0.52365 -1.01975,0.77859 z"
         style="font-style:normal;font-variant:normal;font-weight:bold;font-stretch:normal;font-family:sans-serif;-inkscape-font-specification:'sans-serif Bold';stroke-width:0.26458332"
         id="path54" />
      <path
         d="m -253.58265,115.11176 h 2.65272 v 3.92052 h 3.91363 v -3.92052 h 2.65273 v 10.28705 h -2.65273 v -4.36149 h -3.91363 v 4.36149 h -2.65272 z"
         style="font-style:normal;font-variant:normal;font-weight:bold;font-stretch:normal;font-family:sans-serif;-inkscape-font-specification:'sans-serif Bold';stroke-width:0.26458332"
         id="path56" />
      <path
         d="m -227.60663,124.634 q -0.99219,0.48231 -2.06017,0.72347 -1.06798,0.24116 -2.20486,0.24116 -2.57004,0 -4.0721,-1.43316 -1.50206,-1.44005 -1.50206,-3.89985 0,-2.48736 1.52962,-3.91363 1.52962,-1.42627 4.18923,-1.42627 1.02664,0 1.96371,0.19293 0.94395,0.19292 1.77767,0.57188 v 2.12907 q -0.86128,-0.4892 -1.71566,-0.73036 -0.84749,-0.24115 -1.70188,-0.24115 -1.58474,0 -2.44602,0.88883 -0.85438,0.88194 -0.85438,2.5287 0,1.63298 0.82682,2.52181 0.82683,0.88883 2.34956,0.88883 0.41341,0 0.76481,-0.0482 0.35829,-0.0551 0.64079,-0.16536 v -1.99816 h -1.6192 v -1.77767 h 4.13412 z"
         style="font-style:normal;font-variant:normal;font-weight:bold;font-stretch:normal;font-family:sans-serif;-inkscape-font-specification:'sans-serif Bold';stroke-width:0.26458332"
         id="path58" />
      <path
         d="m -212.21395,124.83382 q -0.73036,0.37896 -1.52273,0.57188 -0.79237,0.19293 -1.65365,0.19293 -2.57004,0 -4.0721,-1.43316 -1.50206,-1.44005 -1.50206,-3.89985 0,-2.46669 1.50206,-3.89985 1.50206,-1.44005 4.0721,-1.44005 0.86128,0 1.65365,0.19293 0.79237,0.19292 1.52273,0.57188 v 2.12907 q -0.73725,-0.50298 -1.45383,-0.73725 -0.71658,-0.23426 -1.50895,-0.23426 -1.41938,0 -2.23242,0.9095 -0.81304,0.90951 -0.81304,2.50803 0,1.59163 0.81304,2.50114 0.81304,0.9095 2.23242,0.9095 0.79237,0 1.50895,-0.23426 0.71658,-0.23427 1.45383,-0.73725 z"
         style="font-style:normal;font-variant:normal;font-weight:bold;font-stretch:normal;font-family:sans-serif;-inkscape-font-specification:'sans-serif Bold';stroke-width:0.26458332"
         id="path60" />
    </g>
    <rect
       style="fill:#000000;stroke:none;stroke-width:7;stroke-miterlimit:4;stroke-dasharray:none;stroke-opacity:1"
       id="rect20"
       width="117.92857"
       height="117.92857"
       x="-155.72618"
       y="35.440475"
       ry="27.214285" />
    <g
       aria-label="CLEAR
ENTER"
       style="font-style:normal;font-weight:normal;font-size:14.11111069px;line-height:1.25;font-family:sans-serif;letter-spacing:0px;word-spacing:0px;fill:#000000;fill-opacity:1;stroke:none;stroke-width:0.26458332"
       id="text65">
      <path
         d="m -272.5169,224.61953 q -0.73036,0.37896 -1.52274,0.57188 -0.79237,0.19293 -1.65364,0.19293 -2.57004,0 -4.0721,-1.43316 -1.50207,-1.44005 -1.50207,-3.89985 0,-2.46669 1.50207,-3.89985 1.50206,-1.44005 4.0721,-1.44005 0.86127,0 1.65364,0.19293 0.79238,0.19293 1.52274,0.57189 v 2.12906 q -0.73725,-0.50298 -1.45383,-0.73725 -0.71658,-0.23426 -1.50896,-0.23426 -1.41937,0 -2.23242,0.9095 -0.81304,0.90951 -0.81304,2.50803 0,1.59164 0.81304,2.50114 0.81305,0.90951 2.23242,0.90951 0.79238,0 1.50896,-0.23427 0.71658,-0.23427 1.45383,-0.73725 z"
         style="font-style:normal;font-variant:normal;font-weight:bold;font-stretch:normal;font-family:sans-serif;-inkscape-font-specification:'sans-serif Bold';stroke-width:0.26458332"
         id="path69" />
      <path
         d="m -270.31204,214.89747 h 2.65272 v 8.28201 h 4.65777 v 2.00504 h -7.31049 z"
         style="font-style:normal;font-variant:normal;font-weight:bold;font-stretch:normal;font-family:sans-serif;-inkscape-font-specification:'sans-serif Bold';stroke-width:0.26458332"
         id="path71" />
      <path
         d="m -261.32723,214.89747 h 7.1589 v 2.00505 h -4.50618 v 1.91547 h 4.23747 v 2.00504 h -4.23747 v 2.35645 h 4.65777 v 2.00504 h -7.31049 z"
         style="font-style:normal;font-variant:normal;font-weight:bold;font-stretch:normal;font-family:sans-serif;-inkscape-font-specification:'sans-serif Bold';stroke-width:0.26458332"
         id="path73" />
      <path
         d="m -245.43845,223.31039 h -4.1479 l -0.65457,1.87413 h -2.6665 l 3.81028,-10.28705 h 3.16259 l 3.81028,10.28705 h -2.66651 z m -3.48644,-1.90858 h 2.81809 l -1.4056,-4.09277 z"
         style="font-style:normal;font-variant:normal;font-weight:bold;font-stretch:normal;font-family:sans-serif;-inkscape-font-specification:'sans-serif Bold';stroke-width:0.26458332"
         id="path75" />
      <path
         d="m -236.99797,219.45878 q 0.83371,0 1.192,-0.31006 0.36518,-0.31006 0.36518,-1.01975 0,-0.7028 -0.36518,-1.00597 -0.35829,-0.30317 -1.192,-0.30317 h -1.11621 v 2.63895 z m -1.11621,1.83279 v 3.89295 h -2.65272 v -10.28705 h 4.05143 q 2.0326,0 2.97656,0.68213 0.95085,0.68213 0.95085,2.15663 0,1.01975 -0.4961,1.67431 -0.4892,0.65457 -1.48139,0.96463 0.54433,0.12402 0.97152,0.565 0.43408,0.43408 0.87505,1.32291 l 1.44005,2.92144 h -2.82497 l -1.25402,-2.55626 q -0.37896,-0.7717 -0.7717,-1.0542 -0.38585,-0.28249 -1.03353,-0.28249 z"
         style="font-style:normal;font-variant:normal;font-weight:bold;font-stretch:normal;font-family:sans-serif;-inkscape-font-specification:'sans-serif Bold';stroke-width:0.26458332"
         id="path77" />
      <path
         d="m -280.67489,232.53636 h 7.15891 v 2.00504 h -4.50619 v 1.91548 h 4.23747 v 2.00504 h -4.23747 v 2.35645 h 4.65777 v 2.00504 h -7.31049 z"
         style="font-style:normal;font-variant:normal;font-weight:bold;font-stretch:normal;font-family:sans-serif;-inkscape-font-specification:'sans-serif Bold';stroke-width:0.26458332"
         id="path79" />
      <path
         d="m -271.02862,232.53636 h 2.96278 l 3.74137,7.05555 v -7.05555 h 2.51492 v 10.28705 h -2.96278 l -3.74137,-7.05555 v 7.05555 h -2.51492 z"
         style="font-style:normal;font-variant:normal;font-weight:bold;font-stretch:normal;font-family:sans-serif;-inkscape-font-specification:'sans-serif Bold';stroke-width:0.26458332"
         id="path81" />
      <path
         d="m -260.43151,232.53636 h 9.4809 v 2.00504 h -3.41064 v 8.28201 h -2.65273 v -8.28201 h -3.41753 z"
         style="font-style:normal;font-variant:normal;font-weight:bold;font-stretch:normal;font-family:sans-serif;-inkscape-font-specification:'sans-serif Bold';stroke-width:0.26458332"
         id="path83" />
      <path
         d="m -249.58635,232.53636 h 7.15891 v 2.00504 h -4.50619 v 1.91548 h 4.23747 v 2.00504 h -4.23747 v 2.35645 h 4.65777 v 2.00504 h -7.31049 z"
         style="font-style:normal;font-variant:normal;font-weight:bold;font-stretch:normal;font-family:sans-serif;-inkscape-font-specification:'sans-serif Bold';stroke-width:0.26458332"
         id="path85" />
      <path
         d="m -236.17115,237.09766 q 0.83372,0 1.19201,-0.31005 0.36518,-0.31006 0.36518,-1.01975 0,-0.7028 -0.36518,-1.00597 -0.35829,-0.30317 -1.19201,-0.30317 h -1.11621 v 2.63894 z m -1.11621,1.8328 v 3.89295 h -2.65272 v -10.28705 h 4.05143 q 2.03261,0 2.97656,0.68213 0.95085,0.68213 0.95085,2.15663 0,1.01974 -0.49609,1.67431 -0.48921,0.65457 -1.48139,0.96463 0.54432,0.12402 0.97151,0.565 0.43409,0.43408 0.87506,1.32291 l 1.44005,2.92144 h -2.82498 l -1.25402,-2.55626 q -0.37896,-0.7717 -0.7717,-1.0542 -0.38585,-0.28249 -1.03353,-0.28249 z"
         style="font-style:normal;font-variant:normal;font-weight:bold;font-stretch:normal;font-family:sans-serif;-inkscape-font-specification:'sans-serif Bold';stroke-width:0.26458332"
         id="path87" />
    </g>
    <rect
       style="fill:#000000;stroke:none;stroke-width:7;stroke-miterlimit:4;stroke-dasharray:none;stroke-opacity:1"
       id="rect105"
       width="210.15475"
       height="75.595238"
       x="-145.89882"
       y="210.82143"
       ry="27.214249" />
  </g>
</svg>
